<?xml version="1.0" encoding="utf-8"?>
<!-- Generator: Adobe Illustrator 26.1.0, SVG Export Plug-In . SVG Version: 6.00 Build 0)  -->
<svg version="1.1"
	 id="svg2457" inkscape:output_extension="org.inkscape.output.svg.inkscape" inkscape:version="0.46" sodipodi:docname="Cargolux Logo.svg" sodipodi:version="0.32" xmlns:cc="http://creativecommons.org/ns#" xmlns:dc="http://purl.org/dc/elements/1.1/" xmlns:inkscape="http://www.inkscape.org/namespaces/inkscape" xmlns:rdf="http://www.w3.org/1999/02/22-rdf-syntax-ns#" xmlns:sodipodi="http://sodipodi.sourceforge.net/DTD/sodipodi-0.dtd" xmlns:svg="http://www.w3.org/2000/svg"
	 xmlns="http://www.w3.org/2000/svg" xmlns:xlink="http://www.w3.org/1999/xlink" x="0px" y="0px" width="280px" height="200px"
	 viewBox="0 0 280 200" enable-background="new 0 0 280 200" xml:space="preserve">
<defs>
	
		<inkscape:perspective  id="perspective2464" inkscape:persp3d-origin="318.10666 : 197.58964 : 1" inkscape:vp_x="177.27994 : 277.84749 : 1" inkscape:vp_y="4.4979686e-14 : 553.03945 : 0" inkscape:vp_z="591.41192 : 294.58928 : 1" sodipodi:type="inkscape:persp3d">
		</inkscape:perspective>
</defs>
<sodipodi:namedview  bordercolor="#666666" borderopacity="1.0" gridtolerance="10.0" guidetolerance="10.0" id="base" inkscape:current-layer="layer1" inkscape:cx="130.0828" inkscape:cy="-34.880385" inkscape:guide-bbox="true" inkscape:pageopacity="0.0" inkscape:pageshadow="2" inkscape:window-height="744" inkscape:window-width="1280" inkscape:window-x="-4" inkscape:window-y="-4" inkscape:zoom="1" objecttolerance="10.0" pagecolor="#ffffff" showgrid="false" showguides="true">
	</sodipodi:namedview>
<path id="path2702" sodipodi:nodetypes="cccccccccccccccccccsssssccccscccscccccccccsccccscccscccccccccsccscccssccsscccscccccccccsccccccccscccccccsc" fill="#9CA3AF" d="
	M97.3,114.3l-14.8-8.5l0.3-18.1L83,69.6l12.5-7.2l12.5-7.2l0.5-15.3l0.5-15.3l15.6-8.8L140.2,7l15.6,8.7l15.6,8.7l0,15.2l0,15.2
	l13.5,7.6l13.5,7.6v17.4v17.4l-2.8,1.9c-3.9,2.7-28.1,16.2-29,16.2c-0.4,0-6.3-3.2-13.1-7s-12.9-7-13.4-7s-6.6,3.2-13.3,7
	s-12.8,7-13.5,6.9C112.6,122.9,105.4,119,97.3,114.3z M108.5,99.7l0-9.2l-7.5-4.2C97,83.9,93.1,82,92.6,82c-0.6,0-1,3.5-1,8.9v8.9
	l8.2,4.5c4.5,2.5,8.4,4.5,8.5,4.6C108.4,109,108.5,104.8,108.5,99.7z M127.6,104.4l8-4.6v-9.4V81l-5.2,3.1c-2.9,1.7-6.7,3.8-8.5,4.7
	l-3.2,1.6v9.3c0,5.1,0,9.6,0.2,9.3C119,108.7,123.2,106.9,127.6,104.4z M161.5,99.7v-9.3l-7.4-4.2c-4.1-2.3-7.7-4.2-8-4.2
	c-0.3,0-0.6,4.2-0.6,9.2l0,9.2l7.7,4.2c4.3,2.3,7.9,4.2,8,4.2C161.4,109,161.5,104.8,161.5,99.7z M180.6,104.4l8-4.6v-9.4V81
	l-5.2,3.1c-2.9,1.7-6.7,3.8-8.5,4.7l-3.2,1.6v9.3c0,5.1,0.2,9.3,0.5,9.3C172.4,109,176.2,106.9,180.6,104.4z M121.5,77.7
	c4.1-2.3,7.4-4.7,7.2-5.2c-0.2-0.5-3.6-2.8-7.7-5l-7.4-4l-6.3,3.4c-11.2,6.1-11,5.3-2.2,10.5c4.3,2.5,8.1,4.6,8.3,4.6
	C113.8,82,117.4,80.1,121.5,77.7z M174.1,77.9c4-2.2,7.6-4.4,7.9-4.9c0.6-1-13.5-9-15.6-9c-0.8,0-4.7,2-8.8,4.4l-7.4,4.3l7.9,4.6
	c4.3,2.5,8,4.6,8.3,4.6S170.1,80.2,174.1,77.9z M135.5,54.7v-9.3l-3.2-1.6c-1.8-0.9-5.6-3-8.5-4.7l-5.2-3.1v9.4v9.4l7.8,4.5
	c4.3,2.5,8.1,4.6,8.5,4.6C135.2,64,135.5,59.8,135.5,54.7z M154.3,59.1l7.2-4.2v-9.4v-9.4l-8,4.5l-8,4.5v9.5c0,5.2,0.3,9.3,0.8,9
	C146.7,63.5,150.3,61.4,154.3,59.1z M148.9,32.1c8.8-4.9,9-4.1-2.3-10.4l-6.5-3.6l-8.2,4.7l-8.2,4.7l8.2,4.7
	c4.5,2.6,8.5,4.5,8.7,4.4C140.9,36.6,144.6,34.5,148.9,32.1z"/>
<path id="flowRoot2704" fill="#9CA3AF" d="M40.7,152.1l-8.5,1.5c-0.3-1.7-0.9-2.9-2-3.8c-1-0.8-2.3-1.3-4-1.3
	c-2.2,0-3.9,0.7-5.2,2.2c-1.3,1.5-1.9,3.9-1.9,7.3c0,3.8,0.7,6.5,2,8.1c1.3,1.6,3.1,2.4,5.3,2.4c1.6,0,3-0.5,4-1.4
	c1-0.9,1.8-2.5,2.2-4.7l8.5,1.4c-0.9,3.8-2.6,6.7-5.1,8.7c-2.5,2-5.9,2.9-10.1,2.9c-4.8,0-8.6-1.5-11.4-4.4c-2.8-3-4.3-7.1-4.3-12.3
	c0-5.3,1.4-9.4,4.3-12.4c2.9-3,6.7-4.4,11.6-4.4c4,0,7.2,0.8,9.5,2.5C38,146.1,39.7,148.7,40.7,152.1L40.7,152.1z M53.7,152.4
	l-7.9-1.4c0.9-3.1,2.4-5.4,4.6-6.9c2.2-1.5,5.4-2.2,9.6-2.2c3.9,0,6.7,0.4,8.6,1.3c1.9,0.9,3.2,2,4,3.4c0.8,1.4,1.2,3.9,1.2,7.6
	l-0.1,9.9c0,2.8,0.1,4.9,0.4,6.2c0.3,1.3,0.8,2.8,1.6,4.3h-8.6c-0.2-0.6-0.5-1.4-0.8-2.5c-0.1-0.5-0.2-0.8-0.3-1
	c-1.5,1.4-3.1,2.5-4.7,3.2c-1.7,0.7-3.5,1.1-5.4,1.1c-3.4,0-6-0.9-8-2.7C46,171,45,168.7,45,166c0-1.8,0.4-3.4,1.3-4.9
	c0.9-1.4,2.1-2.5,3.7-3.3c1.6-0.8,3.9-1.4,6.9-2c4-0.7,6.8-1.4,8.4-2.1v-0.8c0-1.6-0.4-2.8-1.2-3.5c-0.8-0.7-2.4-1-4.7-1
	c-1.5,0-2.7,0.3-3.6,0.9C55,149.9,54.3,150.9,53.7,152.4L53.7,152.4z M65.3,159.3c-1.1,0.4-2.9,0.8-5.3,1.3c-2.4,0.5-4,1-4.7,1.5
	c-1.1,0.8-1.7,1.8-1.7,3c0,1.2,0.5,2.2,1.4,3.1c0.9,0.9,2.1,1.3,3.4,1.3c1.6,0,3-0.5,4.5-1.5c1-0.8,1.7-1.7,2.1-2.8
	c0.2-0.7,0.3-2.1,0.3-4.1V159.3z M90.7,174.8H82v-32.1h8v4.6c1.4-2.2,2.6-3.6,3.7-4.3c1.1-0.7,2.3-1,3.7-1c2,0,3.9,0.5,5.7,1.6
	l-2.7,7.4c-1.5-0.9-2.8-1.4-4.1-1.4c-1.2,0-2.2,0.3-3.1,1c-0.8,0.7-1.5,1.8-2,3.6c-0.5,1.7-0.7,5.3-0.7,10.8V174.8z M106.1,176.9
	l9.9,1.2c0.2,1.1,0.5,1.9,1.1,2.3c0.8,0.6,2.1,0.9,3.9,0.9c2.3,0,4-0.3,5.1-1c0.8-0.4,1.3-1.2,1.7-2.1c0.3-0.7,0.4-2,0.4-3.9v-4.7
	c-2.6,3.5-5.9,5.2-9.8,5.2c-4.4,0-7.9-1.8-10.4-5.5c-2-2.9-3-6.5-3-10.8c0-5.4,1.3-9.5,4-12.3c2.6-2.8,5.9-4.3,9.8-4.3
	c4,0,7.4,1.7,10,5.2v-4.5h8.1v28.8c0,3.8-0.3,6.6-1,8.5c-0.6,1.9-1.5,3.3-2.7,4.4c-1.1,1.1-2.7,1.9-4.6,2.5
	c-1.9,0.6-4.3,0.9-7.3,0.9c-5.5,0-9.5-0.9-11.8-2.8c-2.3-1.9-3.5-4.2-3.5-7.1C106.1,177.6,106.1,177.3,106.1,176.9L106.1,176.9z
	 M113.8,158c0,3.4,0.7,5.9,2,7.5c1.3,1.6,3,2.4,5,2.4c2.1,0,3.9-0.8,5.4-2.4c1.5-1.6,2.2-4,2.2-7.2c0-3.3-0.7-5.8-2.1-7.4
	c-1.4-1.6-3.2-2.4-5.3-2.4c-2.1,0-3.8,0.8-5.1,2.4C114.5,152.4,113.8,154.8,113.8,158L113.8,158z M143.5,158.2
	c0-2.8,0.7-5.6,2.1-8.2c1.4-2.6,3.4-4.7,6-6.1c2.6-1.4,5.5-2.1,8.7-2.1c4.9,0,9,1.6,12.2,4.7c3.2,3.2,4.7,7.1,4.7,12
	c0,4.9-1.6,8.9-4.8,12.1c-3.2,3.2-7.2,4.8-12.1,4.8c-3,0-5.9-0.7-8.6-2c-2.7-1.3-4.8-3.3-6.2-5.9
	C144.2,165.1,143.5,161.9,143.5,158.2L143.5,158.2z M152.3,158.7c0,3.2,0.8,5.6,2.3,7.3c1.5,1.7,3.4,2.5,5.7,2.5
	c2.3,0,4.2-0.8,5.7-2.5c1.5-1.7,2.3-4.2,2.3-7.4c0-3.1-0.8-5.6-2.3-7.3c-1.5-1.7-3.4-2.5-5.7-2.5c-2.3,0-4.2,0.8-5.7,2.5
	C153.1,153.1,152.3,155.5,152.3,158.7L152.3,158.7z M184,174.8v-44.4h8.7v44.4H184z M223.1,174.8v-4.8c-1.2,1.7-2.8,3.1-4.7,4.1
	c-1.9,1-4,1.5-6.1,1.5c-2.2,0-4.2-0.5-5.9-1.4c-1.7-0.9-3-2.3-3.8-4c-0.8-1.7-1.2-4.1-1.2-7.1v-20.3h8.7v14.8c0,4.5,0.2,7.3,0.5,8.3
	c0.3,1,0.9,1.8,1.7,2.4c0.8,0.6,1.9,0.9,3.2,0.9c1.5,0,2.8-0.4,4-1.2c1.2-0.8,2-1.8,2.4-3c0.4-1.2,0.6-4.1,0.6-8.7v-13.6h8.7v32.1
	H223.1z M235.9,174.8l11.8-16.6l-11.3-15.6H247l5.8,8.8l6.1-8.8H269l-11.1,15.2l12.1,16.9h-10.6l-6.7-10l-6.7,10H235.9z"/>
</svg>
